<?xml version="1.0" encoding="UTF-8" standalone="no"?>
<!-- Created with Inkscape (http://www.inkscape.org/) -->

<svg
   width="210mm"
   height="297mm"
   viewBox="0 0 210 297"
   version="1.1"
   id="svg5"
   sodipodi:docname="graph1.svg"
   inkscape:version="1.1.1 (3bf5ae0d25, 2021-09-20, custom)"
   xmlns:inkscape="http://www.inkscape.org/namespaces/inkscape"
   xmlns:sodipodi="http://sodipodi.sourceforge.net/DTD/sodipodi-0.dtd"
   xmlns="http://www.w3.org/2000/svg"
   xmlns:svg="http://www.w3.org/2000/svg">
  <sodipodi:namedview
     id="namedview7"
     pagecolor="#ffffff"
     bordercolor="#666666"
     borderopacity="1.0"
     inkscape:pageshadow="2"
     inkscape:pageopacity="0.0"
     inkscape:pagecheckerboard="0"
     inkscape:document-units="mm"
     showgrid="false"
     inkscape:zoom="0.22392792"
     inkscape:cx="-370.65499"
     inkscape:cy="520.2567"
     inkscape:window-width="1920"
     inkscape:window-height="1036"
     inkscape:window-x="0"
     inkscape:window-y="44"
     inkscape:window-maximized="1"
     inkscape:current-layer="layer1" />
  <defs
     id="defs2">
    <rect
       x="-839.74299"
       y="-260.88945"
       width="34.857916"
       height="55.279843"
       id="rect36355" />
    <marker
       style="overflow:visible;"
       id="marker2323"
       refX="0.0"
       refY="0.0"
       orient="auto"
       inkscape:stockid="Arrow1Lend"
       inkscape:isstock="true">
      <path
         transform="scale(0.8) rotate(180) translate(12.5,0)"
         style="fill-rule:evenodd;fill:context-stroke;stroke:context-stroke;stroke-width:1.0pt;"
         d="M 0.0,0.0 L 5.0,-5.0 L -12.5,0.0 L 5.0,5.0 L 0.0,0.0 z "
         id="path2321" />
    </marker>
    <marker
       style="overflow:visible;"
       id="marker2313"
       refX="0.0"
       refY="0.0"
       orient="auto"
       inkscape:stockid="Arrow1Lend"
       inkscape:isstock="true">
      <path
         transform="scale(0.8) rotate(180) translate(12.5,0)"
         style="fill-rule:evenodd;fill:context-stroke;stroke:context-stroke;stroke-width:1.0pt;"
         d="M 0.0,0.0 L 5.0,-5.0 L -12.5,0.0 L 5.0,5.0 L 0.0,0.0 z "
         id="path2311" />
    </marker>
    <marker
       style="overflow:visible;"
       id="Arrow1Lend"
       refX="0.0"
       refY="0.0"
       orient="auto"
       inkscape:stockid="Arrow1Lend"
       inkscape:isstock="true">
      <path
         transform="scale(0.8) rotate(180) translate(12.5,0)"
         style="fill-rule:evenodd;fill:context-stroke;stroke:context-stroke;stroke-width:1.0pt;"
         d="M 0.0,0.0 L 5.0,-5.0 L -12.5,0.0 L 5.0,5.0 L 0.0,0.0 z "
         id="path1445" />
    </marker>
    <marker
       style="overflow:visible"
       id="Arrow1Lstart"
       refX="0.0"
       refY="0.0"
       orient="auto"
       inkscape:stockid="Arrow1Lstart"
       inkscape:isstock="true">
      <path
         transform="scale(0.8) translate(12.5,0)"
         style="fill-rule:evenodd;fill:context-stroke;stroke:context-stroke;stroke-width:1.0pt"
         d="M 0.0,0.0 L 5.0,-5.0 L -12.5,0.0 L 5.0,5.0 L 0.0,0.0 z "
         id="path1442" />
    </marker>
    <marker
       style="overflow:visible;"
       id="Arrow1Mend"
       refX="0.0"
       refY="0.0"
       orient="auto"
       inkscape:stockid="Arrow1Mend"
       inkscape:isstock="true">
      <path
         transform="scale(0.4) rotate(180) translate(10,0)"
         style="fill-rule:evenodd;fill:context-stroke;stroke:context-stroke;stroke-width:1.0pt;"
         d="M 0.0,0.0 L 5.0,-5.0 L -12.5,0.0 L 5.0,5.0 L 0.0,0.0 z "
         id="path1451" />
    </marker>
  </defs>
  <g
     inkscape:label="Layer 1"
     inkscape:groupmode="layer"
     id="layer1">
    <path
       style="opacity:0.97;fill:#ffffff;stroke:#000000;stroke-width:1.317;stroke-miterlimit:4;stroke-dasharray:none;stroke-dashoffset:0;marker-end:url(#marker2323)"
       d="m -574.34926,382.3012 c 0.765,0.78 1.529,-2.333 2.294,-1.56 0.764,0.774 1.529,-2.326 2.293,-1.559 0.765,0.767 1.53,-2.32 2.294,-1.56 0.765,0.76 1.529,-2.313 2.294,-1.56 0.764,0.754 1.529,-2.306 2.293,-1.559 0.765,0.747 1.53,-2.3 2.294,-1.56 0.765,0.741 1.529,-2.294 2.294,-1.559 0.764,0.734 1.529,-2.288 2.294,-1.56 0.764,0.728 1.529,-2.281 2.293,-1.56 0.765,0.721 1.529,-2.274 2.294,-1.559 0.765,0.714 1.529,-2.268 2.294,-1.56 0.764,0.708 1.529,-2.261 2.293,-1.56 0.765,0.702 1.529,-2.254 2.294,-1.559 0.765,0.695 1.529,-2.248 2.294,-1.56 0.764,0.689 1.529,-2.241 2.293,-1.559 0.765,0.681 1.53,-2.235 2.294,-1.56 0.765,0.675 1.529,-2.229 2.294,-1.56 0.764,0.669 1.529,-2.222 2.293,-1.559 0.765,0.662 1.53,-2.216 2.294,-1.56 0.765,0.656 1.529,-2.209 2.294,-1.56 0.764,0.65 1.529,-2.202 2.294,-1.559 0.764,0.642 1.529,-2.196 2.293,-1.56 0.765,0.636 1.529,-2.189 2.294,-1.56 0.764,0.63 1.529,-2.182 2.294,-1.559 0.764,0.623 1.529,-2.176 2.293,-1.56 0.765,0.617 1.529,-2.169 2.294,-1.559 0.765,0.61 1.529,-2.164 2.294,-1.56 0.764,0.603 1.529,-2.157 2.293,-1.56 0.765,0.597 1.529,-2.15 2.294,-1.559 0.765,0.59 1.529,-2.144 2.294,-1.56 0.764,0.584 1.529,-2.137 2.293,-1.56 0.765,0.578 1.53,-2.13 2.294,-1.559 0.765,0.571 1.529,-2.124 2.294,-1.56 0.764,0.564 1.529,-2.117 2.293,-1.56 0.765,0.558 1.53,-2.11 2.294,-1.559 0.765,0.551 1.529,-2.105 2.294,-1.56 0.764,0.545 1.529,-2.098 2.294,-1.559 0.764,0.538 1.529,-2.092 2.293,-1.56 0.765,0.532 1.529,-2.085 2.294,-1.56 0.764,0.525 1.529,-2.078 2.294,-1.559 0.764,0.518 1.529,-2.072 2.293,-1.56 0.765,0.512 1.529,-2.065 2.294,-1.56 0.765,0.506 1.529,-2.058 2.294,-1.559 0.764,0.499 1.529,-2.052 2.293,-1.56 0.765,0.493 1.529,-2.045 2.294,-1.56 0.765,0.486 1.529,-2.039 2.294,-1.559 0.764,0.479 1.529,-2.033 2.293,-1.56 0.765,0.473 1.53,-2.026 2.294,-1.559 0.765,0.466 1.529,-2.02 2.294,-1.56 0.764,0.46 1.529,-2.013 2.293,-1.56 0.765,0.454 1.53,-2.006 2.294,-1.559 0.765,0.446 1.529,-2 2.294,-1.56 0.764,0.44 1.529,-1.993 2.294,-1.56 0.764,0.434 1.529,-1.986 2.293,-1.559 0.765,0.427 1.529,-1.98 2.294,-1.56 0.764,0.421 1.529,-1.974 2.294,-1.559 0.764,0.414 1.529,-1.968 2.293,-1.56 0.765,0.407 1.529,-1.961 2.294,-1.56 0.765,0.401 1.529,-1.954 2.294,-1.559 0.764,0.394 1.529,-1.948 2.293,-1.56 0.765,0.388 1.529,-1.941 2.294,-1.56 0.765,0.382 1.529,-1.934 2.294,-1.559 0.764,0.375 1.529,-1.928 2.293,-1.56 0.765,0.368 1.53,-1.921 2.294,-1.56 0.765,0.362 1.529,-1.914 2.294,-1.559 0.764,0.355 1.529,-1.909 2.293,-1.56 0.765,0.349 1.53,-1.902 2.294,-1.559 0.765,0.342 1.529,-1.896 2.294,-1.56 0.764,0.336 1.529,-1.889 2.294,-1.56 0.764,0.329 1.529,-1.882 2.293,-1.559 0.765,0.322 1.529,-1.876 2.294,-1.56 0.764,0.316 1.529,-1.869 2.294,-1.56 0.764,0.31 1.529,-1.862 2.293,-1.559 0.765,0.303 1.529,-1.856 2.294,-1.56 0.765,0.297 1.529,-1.85 2.294,-1.56 0.764,0.29 1.529,-1.843 2.293,-1.559 0.765,0.283 1.529,-1.837 2.294,-1.56 0.765,0.277 1.529,-1.83 2.294,-1.559 0.764,0.27 1.529,-1.824 2.293,-1.56 0.765,0.264 1.53,-1.817 2.294,-1.56 0.765,0.258 1.529,-1.81 2.294,-1.559 0.764,0.25 1.529,-1.804 2.293,-1.56 0.765,0.244 1.53,-1.797 2.294,-1.56 0.765,0.238 1.529,-1.79 2.294,-1.559 0.764,0.231 1.529,-1.785 2.294,-1.56 0.764,0.225 1.529,-1.778 2.293,-1.56 0.765,0.219 1.529,-1.771 2.294,-1.559 0.764,0.211 1.529,-1.765 2.294,-1.56 0.764,0.205 1.529,-1.758 2.293,-1.559 0.765,0.198 1.529,-1.752 2.294,-1.56 0.765,0.192 1.529,-1.745 2.294,-1.56 0.764,0.186 1.529,-1.738 2.293,-1.559 0.765,0.179 1.529,-1.732 2.294,-1.56 0.765,0.172 1.529,-1.725 2.294,-1.56 0.764,0.166 1.529,-1.719 2.293,-1.559 0.765,0.159 1.53,-1.713 2.294,-1.56 0.765,0.153 1.529,-1.706 2.294,-1.56 0.764,0.147 1.529,-1.699 2.293,-1.559 0.765,0.14 1.53,-1.693 2.294,-1.56 0.765,0.133 1.529,-1.686 2.294,-1.559 0.764,0.126 1.529,-1.68 2.294,-1.56 0.764,0.12 1.529,-1.673 2.293,-1.56 0.765,0.114 1.529,-1.666 2.294,-1.559 0.764,0.107 1.529,-1.661 2.294,-1.56 0.764,0.101 1.529,-1.654 2.293,-1.56 0.765,0.094 1.529,-1.647 2.294,-1.559 0.765,0.087 1.529,-1.641 2.294,-1.56 0.764,0.081 1.529,-1.634 2.293,-1.559 0.765,0.074 1.529,-1.628 2.294,-1.56 0.765,0.068 1.529,-1.621 2.294,-1.56 0.764,0.062 1.529,-1.614 2.293,-1.559 0.765,0.054 1.53,-1.608 2.294,-1.56 0.765,0.048 1.529,-1.601 2.294,-1.56 0.764,0.042 1.529,-1.595 2.293,-1.559 0.765,0.035 1.53,-1.589 2.294,-1.56 0.765,0.029 1.529,-1.582 2.294,-1.56 0.764,0.023 1.529,-1.575 2.294,-1.559 0.764,0.015 1.529,-1.569 2.293,-1.56 0.765,0.009 1.529,-1.562 2.294,-1.559 0.764,0.002 1.529,-1.556 2.294,-1.56 0.764,-0.004 1.529,-1.549 2.293,-1.56 0.765,-0.01 1.529,-1.542 2.294,-1.559 0.765,-0.017 1.529,-1.536 2.294,-1.56 0.764,-0.024 1.529,-1.53 2.293,-1.56 0.765,-0.03 1.529,-1.523 2.294,-1.559 0.765,-0.037 1.529,-1.517 2.294,-1.56 0.764,-0.043 1.529,-1.51 2.293,-1.56 0.765,-0.049 1.53,-1.503 2.294,-1.559 0.765,-0.056 1.529,-1.497 2.294,-1.56 0.764,-0.063 1.529,-1.49 2.293,-1.559 0.765,-0.07 1.53,-1.484 2.294,-1.56 0.765,-0.076 1.529,-1.477 2.294,-1.56 0.764,-0.082 1.529,-1.471 2.294,-1.559 0.764,-0.089 1.529,-1.465 2.293,-1.56 0.765,-0.095 1.529,-1.458 2.294,-1.56 0.765,-0.102 1.529,-1.451 2.294,-1.559 0.764,-0.109 1.529,-1.445 2.293,-1.56 0.765,-0.115 1.529,-1.438 2.294,-1.56 0.765,-0.121 1.529,-1.431 2.294,-1.559 0.764,-0.128 1.529,-1.425 2.293,-1.56 0.765,-0.134 1.53,-1.418 2.294,-1.559 0.765,-0.142 1.529,-1.412 2.294,-1.56 0.764,-0.148 1.529,-1.406 2.293,-1.56 0.765,-0.154 1.53,-1.399 2.294,-1.559 0.765,-0.161 1.529,-1.393 2.294,-1.56 0.764,-0.167 1.529,-1.386 2.294,-1.56 0.764,-0.173 1.529,-1.379 2.293,-1.559 0.765,-0.18 1.529,-1.373 2.294,-1.56 0.764,-0.187 1.529,-1.366 2.294,-1.56 0.764,-0.193 1.529,-1.359 2.293,-1.559 0.765,-0.2 1.529,-1.353 2.294,-1.56 0.765,-0.206 1.529,-1.346 2.294,-1.559 0.764,-0.213 1.529,-1.341 2.293,-1.56 0.765,-0.219 1.529,-1.334 2.294,-1.56 0.765,-0.226 1.529,-1.327 2.294,-1.559 0.764,-0.233 1.529,-1.321 2.293,-1.56 0.765,-0.239 1.53,-1.314 2.294,-1.56 0.765,-0.245 1.529,-1.307 2.294,-1.559 0.764,-0.252 1.529,-1.301 2.293,-1.56 0.765,-0.258 1.53,-1.294 2.294,-1.559 0.765,-0.266 1.529,-1.288 2.294,-1.56 0.764,-0.272 1.529,-1.282 2.294,-1.56 0.764,-0.278 1.529,-1.275 2.293,-1.559 0.765,-0.285 1.529,-1.269 2.294,-1.56 0.764,-0.291 1.529,-1.262 2.294,-1.56 0.764,-0.297 1.529,-1.255 2.293,-1.559 0.765,-0.305 1.529,-1.249 2.294,-1.56 0.765,-0.311 1.529,-1.242 2.294,-1.56 0.764,-0.317 1.529,-1.235 2.293,-1.559 0.765,-0.324 1.529,-1.229 2.294,-1.56 0.765,-0.33 1.529,-1.222 2.294,-1.559 0.764,-0.337 1.529,-1.217 2.293,-1.56 0.765,-0.344 1.53,-1.21 2.2941,-1.56 0.7645,-0.35 1.5291,-1.203 2.2937,-1.559 0.7645,-0.357 1.5291,-1.197 2.2937,-1.56 0.7645,-0.363 1.5291,-1.19 2.2936,-1.56 0.7646,-0.369 1.5292,-1.183 2.2937,-1.559 0.7646,-0.376 1.5292,-1.177 2.2937,-1.56 0.7646,-0.383 1.5291,-1.17 2.2937,-1.56 0.7646,-0.389 1.5291,-1.163 2.2937,-1.559 0.7646,-0.396 1.5291,-1.157 2.2937,-1.56 0.7645,-0.402005 1.5291,-1.151005 2.2937,-1.559005 0.7645,-0.409 1.5291,-1.145 2.2937,-1.56 0.7645,-0.415 1.5291,-1.138 2.2937,-1.56 0.7645,-0.422 1.5291,-1.131 2.2936,-1.559 0.7646,-0.429 1.5292,-1.125 2.2937,-1.56 0.7646,-0.435 1.5292,-1.118 2.2937,-1.56 0.7646,-0.441 1.5291,-1.111 2.2937,-1.559 0.7646,-0.448 1.5291,-1.105 2.2937,-1.56 0.7646,-0.454 1.5291,-1.098 2.2937,-1.56 0.7645,-0.4606 1.5291,-1.0915 2.2937,-1.5592 0.7645,-0.4676 1.5291,-1.0854 2.2937,-1.5596 0.7645,-0.4741 1.5291,-1.0789 2.2936,-1.5596 0.7646,-0.4807 1.5292,-1.0724 2.2937,-1.5597 0.7646,-0.4872 1.5292,-1.0658 2.2937,-1.5596 0.7646,-0.4937 1.5291,-1.0593 2.2937,-1.5596 0.7646,-0.5003 1.5291,-1.0528 2.2937,-1.5597 0.7646,-0.5068 1.5291,-1.0462 2.2937,-1.5596 0.7645,-0.5133 1.5291,-1.0398 2.2937,-1.5596"
       id="path2195" />
    <path
       style="opacity:0.97;fill:#ffffff;stroke:#000000;stroke-width:1.317;stroke-miterlimit:4;stroke-dasharray:none;stroke-dashoffset:0;marker-mid:url(#marker2313);marker-end:url(#marker2323)"
       d="M -300.48326,382.3012 V -83.249805"
       id="path2193" />
    <path
       style="opacity:0.97;fill:#ffffff;stroke:#000000;stroke-width:1.317;stroke-miterlimit:4;stroke-dasharray:none;stroke-dashoffset:0;marker-end:url(#marker2323)"
       d="m -574.34926,227.1172 h 456.444"
       id="path2164" />
    <text
       xml:space="preserve"
       style="font-style:normal;font-weight:normal;font-size:10.5833px;line-height:1.25;font-family:sans-serif;white-space:pre;inline-size:23.2753;fill:#000000;fill-opacity:1;stroke:none;stroke-width:0.264583"
       x="-222.18199"
       y="-69.026993"
       id="text9023" />
    <text
       xml:space="preserve"
       transform="scale(0.26458333)"
       id="text36353"
       style="line-height:1.25;font-family:sans-serif;font-size:53.33333333px;white-space:pre;shape-inside:url(#rect36355)" />
    <text
       xml:space="preserve"
       style="font-style:normal;font-variant:normal;font-weight:normal;font-stretch:normal;font-size:38.3138px;line-height:1.25;font-family:sans-serif;-inkscape-font-specification:'sans-serif, Normal';font-variant-ligatures:normal;font-variant-caps:normal;font-variant-numeric:normal;font-variant-east-asian:normal;stroke-width:0.718384"
       x="-266.12152"
       y="-98.620987"
       id="text40585"
       transform="scale(1.1375018,0.87911948)"><tspan
         sodipodi:role="line"
         id="tspan889"
         x="-266.12152"
         y="-98.620987">$y$</tspan></text>
    <text
       xml:space="preserve"
       style="font-style:normal;font-weight:normal;font-size:32.4055px;line-height:1.25;font-family:sans-serif;fill:#000000;fill-opacity:1;stroke:none;stroke-width:0.81014"
       x="-160.02502"
       y="187.67284"
       id="text3819"
       transform="scale(0.74317732,1.3455739)"><tspan
         sodipodi:role="line"
         id="tspan3817"
         style="stroke-width:0.81014"
         x="-160.02502"
         y="187.67284">$x$</tspan></text>
  </g>
</svg>
