<?xml version="1.0" encoding="UTF-8" standalone="no"?>
<!-- Created with Inkscape (http://www.inkscape.org/) -->

<svg
   width="210mm"
   height="297mm"
   viewBox="0 0 210 297"
   version="1.1"
   id="svg15361"
   sodipodi:docname="graph3.svg"
   xmlns:inkscape="http://www.inkscape.org/namespaces/inkscape"
   xmlns:sodipodi="http://sodipodi.sourceforge.net/DTD/sodipodi-0.dtd"
   xmlns="http://www.w3.org/2000/svg"
   xmlns:svg="http://www.w3.org/2000/svg">
  <sodipodi:namedview
     id="namedview15363"
     pagecolor="#ffffff"
     bordercolor="#666666"
     borderopacity="1.0"
     inkscape:pageshadow="2"
     inkscape:pageopacity="0.0"
     inkscape:pagecheckerboard="0"
     inkscape:document-units="mm"
     showgrid="false"
     inkscape:zoom="0.31723122"
     inkscape:cx="-53.588673"
     inkscape:cy="1319.227"
     inkscape:window-width="1920"
     inkscape:window-height="1036"
     inkscape:window-x="0"
     inkscape:window-y="44"
     inkscape:window-maximized="1"
     inkscape:current-layer="layer1" />
  <defs
     id="defs15358">
    <marker
       style="overflow:visible;"
       id="marker15808"
       refX="0.0"
       refY="0.0"
       orient="auto"
       inkscape:stockid="Arrow1Lend"
       inkscape:isstock="true">
      <path
         transform="scale(0.8) rotate(180) translate(12.5,0)"
         style="fill-rule:evenodd;fill:context-stroke;stroke:context-stroke;stroke-width:1.0pt;"
         d="M 0.0,0.0 L 5.0,-5.0 L -12.5,0.0 L 5.0,5.0 L 0.0,0.0 z "
         id="path15806" />
    </marker>
    <marker
       style="overflow:visible;"
       id="Arrow1Lend"
       refX="0.0"
       refY="0.0"
       orient="auto"
       inkscape:stockid="Arrow1Lend"
       inkscape:isstock="true">
      <path
         transform="scale(0.8) rotate(180) translate(12.5,0)"
         style="fill-rule:evenodd;fill:context-stroke;stroke:context-stroke;stroke-width:1.0pt;"
         d="M 0.0,0.0 L 5.0,-5.0 L -12.5,0.0 L 5.0,5.0 L 0.0,0.0 z "
         id="path933" />
    </marker>
  </defs>
  <g
     inkscape:label="Layer 1"
     inkscape:groupmode="layer"
     id="layer1">
    <path
       style="fill:#ffffff;stroke:#000000;stroke-width:0.765;stroke-miterlimit:4;stroke-dasharray:none"
       d="m -438.23879,102.44714 c 0.443,0.3133 0.887,0.003 1.33,0.3133 0.443,0.3107 0.887,0.005 1.33,0.3133 0.443,0.3081 0.886,0.008 1.33,0.3133 0.443,0.3055 0.886,0.0105 1.33,0.3133 0.443,0.3029 0.886,0.0131 1.33,0.3133 0.443,0.3002 0.886,0.0158 1.33,0.3133 0.443,0.2976 0.886,0.0184 1.33,0.3133 0.443,0.295 0.886,0.021 1.329,0.3134 0.444,0.2923 0.887,0.0235 1.33,0.3133 0.444,0.2897 0.887,0.0262 1.33,0.3133 0.444,0.2871 0.887,0.0288 1.33,0.3133 0.444,0.2845 0.887,0.0314 1.33,0.3133 0.444,0.2818 0.887,0.034 1.33,0.3133 0.443,0.2792 0.887,0.0366 1.33,0.3133 0.443,0.2766 0.887,0.0393 1.33,0.3133 0.443,0.274 0.887,0.0419 1.33,0.3133 0.443,0.2714 0.887,0.0445 1.33,0.3133 0.443,0.2688 0.887,0.0471 1.33,0.3133 0.443,0.2661 0.886,0.0498 1.33,0.3133 0.443,0.2635 0.886,0.0524 1.33,0.3133 0.443,0.2609 0.886,0.055 1.33,0.3133 0.443,0.2583 0.886,0.0576 1.33,0.3133 0.443,0.2557 0.886,0.0603 1.33,0.3133 0.443,0.2531 0.886,0.0629 1.329,0.3133 0.444,0.2505 0.887,0.0655 1.33,0.3133 0.444,0.2478 0.887,0.0681 1.33,0.3133 0.444,0.2452 0.887,0.0708 1.33,0.3133 0.444,0.2426 0.887,0.0734 1.33,0.3133 0.443,0.24 0.887,0.076 1.33,0.3133 0.443,0.2374 0.887,0.0786 1.33,0.3134 0.443,0.2347 0.887,0.0812 1.33,0.3133 0.443,0.2321 0.887,0.0838 1.33,0.3133 0.443,0.2294 0.887,0.0864 1.33,0.3133 0.443,0.2268 0.886,0.089 1.33,0.3133 0.443,0.2242 0.886,0.0917 1.33,0.3133 0.443,0.2216 0.886,0.0943 1.33,0.3133 0.443,0.219 0.886,0.0969 1.33,0.3133 0.443,0.2164 0.886,0.0995 1.33,0.3133 0.443,0.2137 0.886,0.1022 1.329,0.3133 0.444,0.2111 0.887,0.1048 1.33,0.3133 0.444,0.2085 0.887,0.1074 1.33,0.3133 0.444,0.2059 0.887,0.11 1.33,0.3133 0.444,0.2033 0.887,0.1126 1.33,0.3133 0.444,0.2007 0.887,0.1153 1.33,0.3133 0.443,0.1981 0.887,0.1179 1.33,0.3133 0.443,0.1954 0.887,0.1205 1.33,0.3133 0.443,0.1928 0.887,0.1231 1.33,0.3133 0.443,0.1902 0.887,0.1258 1.33,0.3133 0.443,0.1876 0.887,0.1284 1.33,0.3133 0.443,0.185 0.886,0.131 1.33,0.3133 0.443,0.1824 0.886,0.1336 1.33,0.3133 0.443,0.1798 0.886,0.1363 1.33,0.3134 0.443,0.177 0.886,0.1388 1.33,0.3133 0.443,0.1744 0.886,0.1414 1.33,0.3133 0.443,0.1718 0.886,0.144 1.329,0.3133 0.444,0.1692 0.887,0.1467 1.33,0.3133 0.444,0.1666 0.887,0.1493 1.33,0.3133 0.444,0.164 0.887,0.1519 1.33,0.3133 0.444,0.1613 0.887,0.1545 1.33,0.3133 0.444,0.1587 0.887,0.1572 1.33,0.3133 0.443,0.1561 0.887,0.1598 1.33,0.3133 0.443,0.1535 0.887,0.1624 1.33,0.3133 0.443,0.1509 0.887,0.165 1.33,0.3133 0.443,0.1483 0.887,0.1677 1.33,0.3133 0.443,0.1457 0.886,0.1703 1.33,0.3133 0.443,0.143 0.886,0.1729 1.33,0.3133 0.443,0.1404 0.886,0.1755 1.33,0.3133 0.443,0.1378 0.886,0.1782 1.33,0.3133 0.443,0.1352 0.886,0.1808 1.33,0.3133 0.443,0.1326 0.886,0.1834 1.329,0.3133 0.444,0.13 0.887,0.186 1.33,0.3133 0.444,0.1273 0.887,0.1886 1.33,0.3133 0.444,0.1247 0.887,0.1913 1.33,0.3133 0.444,0.1221 0.887,0.1939 1.33,0.3133 0.444,0.1195 0.887,0.1965 1.33,0.3134 0.443,0.1168 0.887,0.199 1.33,0.3133 0.443,0.1142 0.887,0.2017 1.33,0.3133 0.443,0.1116 0.887,0.2043 1.33,0.3133 0.443,0.1089 0.887,0.2069 1.33,0.3133 0.443,0.1063 0.887,0.2095 1.33,0.3133 0.443,0.1037 0.886,0.2122 1.33,0.3133 0.443,0.1011 0.886,0.2148 1.33,0.3133 0.443,0.0985 0.886,0.2174 1.33,0.3133 0.443,0.0959 0.886,0.22 1.33,0.3133 0.443,0.0933 0.886,0.2227 1.33,0.3133 0.443,0.0906 0.886,0.2253 1.329,0.3133 0.444,0.088 0.887,0.2279 1.33,0.3133 0.444,0.0854 0.887,0.2305 1.33,0.3133 0.444,0.0828 0.887,0.2332 1.33,0.3133 0.444,0.0802 0.887,0.2358 1.33,0.3133 0.444,0.0776 0.887,0.2384 1.33,0.3133 0.443,0.0749 0.887,0.241 1.33,0.3133 0.443,0.0723 0.887,0.2437 1.33,0.3133 0.443,0.0697 0.887,0.2463 1.33,0.3133 0.443,0.0671 0.887,0.2489 1.33,0.3133 0.443,0.0645 0.887,0.2515 1.33,0.3133 0.443,0.0619 0.886,0.2541 1.33,0.3134 0.443,0.0592 0.886,0.2567 1.33,0.3133 0.443,0.0565 0.886,0.2592 1.33,0.3132 0.443,0.054 0.886,0.262 1.33,0.313 0.443,0.052 0.886,0.265 1.33,0.314 0.443,0.048 0.886,0.267 1.329,0.313 0.444,0.046 0.887,0.27 1.33,0.313 0.444,0.044 0.887,0.273 1.33,0.314 0.444,0.04 0.887,0.275 1.33,0.313 0.444,0.038 0.887,0.278 1.33,0.313 0.443,0.036 0.887,0.28 1.33,0.313 0.443,0.034 0.887,0.283 1.33,0.314 0.443,0.03 0.887,0.285 1.33,0.313 0.443,0.028 0.887,0.288 1.33,0.313 0.443,0.026 0.887,0.291 1.33,0.314 0.443,0.022 0.886,0.293 1.33,0.313 0.443,0.02 0.886,0.296 1.33,0.313 0.443,0.018 0.886,0.299 1.33,0.314 0.443,0.014 0.886,0.301 1.33,0.313 0.443,0.012 0.886,0.304 1.33,0.313 0.443,0.01 0.886,0.307 1.329,0.314 0.444,0.006 0.887,0.309 1.33,0.313 0.444,0.004 0.887,0.312 1.33,0.313 0.444,0.002 0.887,0.315 1.33,0.313 0.444,-0.001 0.887,0.317 1.33,0.314 0.444,-0.004 0.887,0.319 1.33,0.313 0.443,-0.006 0.887,0.322 1.33,0.313 0.443,-0.009 0.887,0.325 1.33,0.314 0.443,-0.012 0.887,0.327 1.33,0.313 0.443,-0.014 0.887,0.33 1.33,0.313 0.443,-0.016 0.887,0.333 1.33,0.314 0.443,-0.02 0.886,0.335 1.33,0.313 0.443,-0.022 0.886,0.338 1.33,0.313 0.443,-0.024 0.886,0.341 1.33,0.313 0.443,-0.027 0.886,0.344 1.33,0.314 0.443,-0.03 0.886,0.346 1.33,0.313 0.443,-0.032 0.886,0.349 1.329,0.313 0.444,-0.035 0.887,0.351 1.33,0.314 0.444,-0.038 0.887,0.353 1.33,0.313 0.444,-0.04 0.887,0.356 1.33,0.313 0.444,-0.043 0.887,0.359 1.33,0.314 0.444,-0.046 0.887,0.361 1.33,0.313 0.443,-0.048 0.887,0.364 1.33,0.313 0.443,-0.051 0.887,0.367 1.33,0.314 0.443,-0.054 0.887,0.369 1.33,0.313 0.443,-0.056 0.887,0.372 1.33,0.313 0.443,-0.059 0.886,0.375 1.33,0.313 0.443,-0.061 0.886,0.378 1.33,0.314 0.443,-0.064 0.886,0.38 1.33,0.313 0.443,-0.066 0.8863,0.383 1.3296,0.313 0.4433,-0.069 0.8866,0.385 1.33,0.314 0.4433,-0.072 0.8866,0.387 1.3299,0.313 0.4433,-0.074 0.8866,0.39 1.3299,0.313 0.4433,-0.077 0.8866,0.393 1.33,0.314 0.4433,-0.08 0.8866,0.395 1.3299,0.313 0.4433,-0.082 0.8866,0.398 1.3299,0.313 0.4433,-0.085 0.8867,0.401 1.33,0.314 0.4433,-0.088 0.8866,0.403 1.3299,0.313 0.4433,-0.09 0.8866,0.406 1.3299,0.313 0.4433,-0.093 0.8867,0.409 1.33,0.313 0.4433,-0.095 0.8866,0.412 1.3299,0.314 0.4433,-0.098 0.8866,0.414 1.3299,0.313 0.4434,-0.101 0.8867,0.417 1.33,0.313 0.4433,-0.103 0.8866,0.419 1.3299,0.314 0.4433,-0.106 0.8866,0.421 1.33,0.313 0.4433,-0.109 0.8866,0.424 1.3299,0.313 0.4433,-0.111 0.8866,0.427 1.3299,0.314 0.4433,-0.114 0.8866,0.429 1.33,0.313 0.4433,-0.116 0.8866,0.432 1.3299,0.313 0.4433,-0.119 0.8866,0.435 1.3299,0.313 0.4433,-0.121 0.8867,0.438 1.33,0.314 0.4433,-0.124 0.8866,0.44 1.3299,0.313 0.4433,-0.127 0.8866,0.443 1.3299,0.313 0.4434,-0.129 0.8867,0.446 1.33,0.314 0.4433,-0.132 0.8866,0.448 1.3299,0.313 0.4433,-0.135 0.8866,0.451 1.3299,0.313 0.4434,-0.137 0.8867,0.453 1.33,0.314 0.4433,-0.14 0.8866,0.455 1.3299,0.313 0.4433,-0.143 0.8866,0.458 1.33,0.313 0.4433,-0.145 0.8866,0.461 1.3299,0.314 0.4433,-0.148 0.8866,0.463 1.3299,0.313 0.4433,-0.151 0.8866,0.466 1.33,0.313 0.4433,-0.153 0.8866,0.469 1.3299,0.313 0.4433,-0.155 0.8866,0.472 1.3299,0.314 0.4433,-0.159 0.8867,0.474 1.33,0.313 0.4433,-0.161 0.8866,0.477 1.3299,0.313 0.4433,-0.163 0.8866,0.48 1.3299,0.314 0.4434,-0.166 0.8867,0.482 1.33,0.313 0.4433,-0.169 0.8866,0.485 1.3299,0.313 0.4433,-0.171 0.8866,0.487 1.3299,0.314 0.4434,-0.174 0.8867,0.489 1.33,0.313 0.4433,-0.177 0.8866,0.492 1.3299,0.313 0.4433,-0.179 0.8866,0.495 1.33,0.313 0.4433,-0.181 0.8866,0.498 1.3299,0.314 0.4433,-0.185 0.8866,0.5 1.3299,0.313 0.4433,-0.187 0.8867,0.503 1.33,0.313 0.4433,-0.189 0.8866,0.506 1.3299,0.314 0.4433,-0.193 0.8866,0.508 1.3299,0.313 0.4433,-0.195 0.8867,0.511 1.33,0.313 0.4433,-0.197 0.8866,0.514 1.3299,0.314 0.4433,-0.201 0.8866,0.516 1.3299,0.313 0.4434,-0.203 0.8867,0.519 1.33,0.313 0.4433,-0.205 0.8866,0.522 1.3299,0.314 0.4433,-0.208 0.8866,0.523 1.33,0.313 0.4433,-0.211 0.8866,0.526 1.3299,0.313 0.4433,-0.213 0.8866,0.529 1.3299,0.313 0.4433,-0.215 0.8866,0.532 1.33,0.314 0.4433,-0.219 0.8866,0.534 1.3299,0.313 0.4433,-0.221 0.8866,0.537 1.3299,0.313 0.4433,-0.223 0.8867,0.54 1.33,0.314 0.4433,-0.227 0.8866,0.542 1.3299,0.313 0.4433,-0.229 0.8866,0.545 1.3299,0.313 0.4433,-0.231 0.8867,0.548 1.33,0.314 0.4433,-0.235 0.8866,0.55 1.3299,0.313 0.4433,-0.237 0.8866,0.553 1.3299,0.313 0.4434,-0.239 0.8867,0.556 1.33,0.313 0.4433,-0.242 0.8866,0.558 1.3299,0.314 0.44333,-0.245 0.88664,0.56 1.32995,0.313 0.44331,-0.247 0.88663,0.563 1.32994,0.313 0.44331,-0.25 0.88662,0.566 1.32993,0.314 0.44332,-0.253 0.88663,0.568 1.32994,0.313 0.44331,-0.255 0.88662,0.571 1.32994,0.313 0.44331,-0.257 0.88662,0.574 1.32993,0.314 0.44331,-0.261 0.88663,0.576 1.32994,0.313 0.44331,-0.263 0.88662,0.579 1.32994,0.313 0.44331,-0.265 0.88662,0.582 1.32993,0.314 0.44331,-0.269 0.88662,0.584 1.32994,0.313 0.44331,-0.271 0.88662,0.587 1.32993,0.313 0.44331,-0.273 0.88662,0.59 1.32994,0.313 0.44331,-0.276 0.88662,0.592 1.32993,0.314 0.44331,-0.279 0.88663,0.594 1.32994,0.313 0.44331,-0.281 0.88662,0.597 1.32993,0.313 0.44335,-0.284 0.88665,0.6 1.32995,0.314 0.4433,-0.287 0.8866,0.602 1.3299,0.313 0.4433,-0.289 0.8867,0.605 1.33,0.313 0.4433,-0.292 0.8866,0.608 1.3299,0.314 0.4433,-0.295 0.8866,0.61 1.3299,0.313 0.4433,-0.297 0.8867,0.613 1.33,0.313 0.4433,-0.3 0.8866,0.616 1.3299,0.313 0.4433,-0.302 0.8866,0.619 1.3299,0.314 0.4434,-0.305 0.8867,0.621 1.33,0.313 0.4433,-0.307 0.8866,0.624 1.3299,0.313 0.4433,-0.31 0.8866,0.626 1.3299,0.314 0.4434,-0.313 0.8867,0.628 1.33,0.313 0.4433,-0.315 0.8866,0.631 1.3299,0.313 0.4433,-0.318 0.8866,0.634 1.33,0.314 0.4433,-0.321 0.8866,0.636 1.3299,0.313 0.4433,-0.323 0.8866,0.639 1.3299,0.313 0.4433,-0.326 0.8867,0.642 1.33,0.314 0.4433,-0.329 0.8866,0.644 1.3299,0.313 0.4433,-0.331 0.8866,0.647 1.3299,0.313 0.4433,-0.334 0.8867,0.65 1.33,0.313 0.4433,-0.336 0.8866,0.653 1.3299,0.314 0.4433,-0.339 0.8866,0.655 1.3299,0.313 0.4434,-0.342 0.8867,0.658 1.33,0.313 0.4433,-0.344 0.8866,0.66 1.3299,0.314 0.4433,-0.347 0.8866,0.662 1.33,0.313 0.4433,-0.35 0.8866,0.665 1.3299,0.313 0.443303,-0.352 0.886603,0.668 1.329903,0.314 0.4433,-0.355 0.8866,0.67 1.33,0.313 0.4433,-0.357 0.8866,0.673 1.3299,0.313 0.4433,-0.36 0.8866,0.676 1.3299,0.313 0.4433,-0.362 0.8867,0.679 1.33,0.314 0.4433,-0.365 0.8866,0.681 1.3299,0.313 0.4433,-0.368 0.8866,0.684 1.3299,0.313 0.4433,-0.37 0.8867,0.687 1.33,0.314 0.4433,-0.373 0.8866,0.689 1.3299,0.313 0.4433,-0.376 0.8866,0.692 1.3299,0.313 0.4434,-0.378 0.8867,0.694 1.33,0.314 0.4433,-0.381 0.8866,0.696 1.3299,0.313 0.4433,-0.384 0.8866,0.699 1.33,0.313 0.4433,-0.386 0.8866,0.702 1.3299,0.314 0.4433,-0.389 0.8866,0.704 1.3299,0.313 0.4433,-0.392 0.8866,0.707 1.33,0.313 0.4433,-0.394 0.8866,0.71 1.3299,0.313 0.4433,-0.396 0.8866,0.713 1.3299,0.314 0.4433,-0.399 0.8867,0.715 1.33,0.313 0.4433,-0.402 0.8866,0.718 1.3299,0.313 0.4433,-0.404 0.8866,0.721 1.3299,0.314 0.4434,-0.407 0.8867,0.723 1.33,0.313 0.4433,-0.41 0.8866,0.726 1.3299,0.313 0.4433,-0.412 0.8866,0.729 1.3299,0.314 0.4434,-0.415 0.8867,0.73 1.33,0.313 0.4433,-0.418 0.8866,0.733 1.3299,0.313 0.4433,-0.42 0.8866,0.736 1.33,0.313 0.4433,-0.422 0.8866,0.739 1.3299,0.314 0.4433,-0.426 0.8866,0.741 1.3299,0.313 0.4433,-0.428 0.8867,0.744 1.33,0.313 0.4433,-0.43 0.8866,0.747 1.3299,0.314 0.4433,-0.434 0.8866,0.749 1.3299,0.313 0.4433,-0.436 0.8867,0.752 1.33,0.313 0.4433,-0.438 0.8866,0.755 1.3299,0.314 0.4433,-0.442 0.8866,0.757 1.3299,0.313 0.4434,-0.444 0.8867,0.76 1.33,0.313 0.4433,-0.446 0.8866,0.763 1.3299,0.314 0.4433,-0.449 0.8866,0.764 1.3299,0.313 0.4434,-0.452 0.8867,0.767 1.33,0.313 0.4433,-0.454 0.8866,0.77 1.3299,0.313 0.4433,-0.456 0.8866,0.773 1.33,0.314 0.4433,-0.46 0.8866,0.775 1.3299,0.313 0.443,-0.462 0.887,0.778 1.33,0.313 0.443,-0.464 0.887,0.781 1.33,0.314 0.443,-0.468 0.886,0.783 1.33,0.313 L -492.55067,89.941024"
       id="path15754" />
    <path
       style="fill:#ffffff;stroke:#000000;stroke-width:0.765;marker-end:url(#Arrow1Lend)"
       d="M -279.17879,477.15924 V 55.608244"
       id="path15752" />
    <path
       style="fill:#ffffff;stroke:#000000;stroke-width:0.765;marker-end:url(#marker15808)"
       d="M -438.23879,336.64224 H -40.587787"
       id="path15643" />
  </g>
</svg>
